<svg width="177" height="253" viewBox="0 0 177 253" fill="none" xmlns="http://www.w3.org/2000/svg">
<path d="M176.476 253H5.91895V219.162L86.4121 133.371C97.4635 121.294 105.61 110.756 110.851 101.755C116.205 92.7542 118.883 84.2093 118.883 76.1201C118.883 65.0687 116.091 56.4098 110.509 50.1436C104.926 43.7633 96.9508 40.5732 86.583 40.5732C75.4176 40.5732 66.5879 44.4469 60.0938 52.1943C53.7135 59.8278 50.5234 69.9108 50.5234 82.4434H0.962891C0.962891 67.2904 4.55176 53.4476 11.7295 40.915C19.0212 28.3825 29.2751 18.5843 42.4912 11.5205C55.7074 4.34277 70.6895 0.753906 87.4375 0.753906C113.072 0.753906 132.953 6.90625 147.081 19.2109C161.323 31.5156 168.443 48.8903 168.443 71.335C168.443 83.6396 165.253 96.1722 158.873 108.933C152.493 121.693 141.555 136.561 126.061 153.537L69.4932 213.181H176.476V253Z" fill="white"/>
</svg>
