<svg width="174" height="257" viewBox="0 0 174 257" fill="none" xmlns="http://www.w3.org/2000/svg">
<path d="M57.1631 106.711H83.4814C96.014 106.711 105.299 103.578 111.338 97.3115C117.376 91.0452 120.396 82.7282 120.396 72.3604C120.396 62.3343 117.376 54.5299 111.338 48.9473C105.413 43.3646 97.2103 40.5732 86.7285 40.5732C77.2721 40.5732 69.3538 43.1937 62.9736 48.4346C56.5934 53.5615 53.4033 60.2835 53.4033 68.6006H4.01367C4.01367 55.6123 7.48861 43.9912 14.4385 33.7373C21.5023 23.3695 31.3005 15.2803 43.833 9.46973C56.4795 3.65918 70.3792 0.753906 85.5322 0.753906C111.851 0.753906 132.472 7.07715 147.397 19.7236C162.323 32.2562 169.785 49.5739 169.785 71.6768C169.785 83.07 166.31 93.5518 159.36 103.122C152.41 112.692 143.296 120.041 132.017 125.168C146.03 130.181 156.455 137.701 163.291 147.727C170.241 157.753 173.716 169.602 173.716 183.273C173.716 205.376 165.627 223.093 149.448 236.423C133.384 249.753 112.078 256.418 85.5322 256.418C60.695 256.418 40.3581 249.867 24.5215 236.765C8.79883 223.662 0.9375 206.345 0.9375 184.812H50.3271C50.3271 194.154 53.8021 201.787 60.752 207.712C67.8158 213.636 76.4746 216.599 86.7285 216.599C98.4635 216.599 107.635 213.522 114.243 207.37C120.965 201.104 124.326 192.844 124.326 182.59C124.326 157.753 110.654 145.334 83.3105 145.334H57.1631V106.711Z" fill="white"/>
</svg>
