<svg width="170" height="253" viewBox="0 0 170 253" fill="none" xmlns="http://www.w3.org/2000/svg">
<path d="M7.26758 126.637L21.623 0.171875H161.076V41.3584H62.126L55.9736 94.8496C67.7087 88.5833 80.1842 85.4502 93.4004 85.4502C117.098 85.4502 135.669 92.7988 149.113 107.496C162.557 122.193 169.279 142.758 169.279 169.19C169.279 185.255 165.861 199.667 159.025 212.428C152.303 225.074 142.619 234.929 129.973 241.993C117.326 248.943 102.401 252.418 85.1973 252.418C70.1582 252.418 56.2015 249.399 43.3271 243.36C30.4528 237.208 20.2559 228.606 12.7363 217.555C5.33073 206.503 1.40007 193.914 0.944336 179.786H49.8213C50.8467 190.154 54.4355 198.243 60.5879 204.054C66.8542 209.75 75.0003 212.599 85.0264 212.599C96.1917 212.599 104.794 208.611 110.832 200.636C116.87 192.547 119.89 181.153 119.89 166.456C119.89 152.328 116.415 141.505 109.465 133.985C102.515 126.466 92.6598 122.706 79.8994 122.706C68.1644 122.706 58.651 125.782 51.3594 131.935L46.5742 136.378L7.26758 126.637Z" fill="white"/>
</svg>
