<svg width="172" height="256" viewBox="0 0 172 256" fill="none" xmlns="http://www.w3.org/2000/svg">
<path d="M133.903 0.608398V41.2822H129.118C106.787 41.624 88.7861 47.4346 75.1143 58.7139C61.5563 69.9932 53.4102 85.6589 50.6758 105.711C63.8919 92.2669 80.583 85.5449 100.749 85.5449C122.396 85.5449 139.6 93.2923 152.36 108.787C165.121 124.282 171.501 144.676 171.501 169.969C171.501 186.147 167.969 200.787 160.905 213.89C153.955 226.992 144.043 237.189 131.169 244.48C118.409 251.772 103.939 255.418 87.7607 255.418C61.5563 255.418 40.3649 246.303 24.1865 228.074C8.12207 209.845 0.0898438 185.521 0.0898438 155.101V137.327C0.0898438 110.325 5.15983 86.5133 15.2998 65.8916C25.5537 45.1559 40.194 29.1484 59.2207 17.8691C78.3613 6.47591 100.521 0.722331 125.7 0.608398H133.903ZM85.71 125.193C77.7347 125.193 70.5 127.301 64.0059 131.517C57.5117 135.618 52.7266 141.087 49.6504 147.923V162.962C49.6504 179.482 52.8975 192.413 59.3916 201.756C65.8857 210.984 75.0003 215.599 86.7354 215.599C97.3311 215.599 105.876 211.44 112.37 203.123C118.978 194.692 122.282 183.812 122.282 170.481C122.282 156.924 118.978 145.986 112.37 137.669C105.762 129.352 96.8753 125.193 85.71 125.193Z" fill="white"/>
</svg>
