<svg width="512" height="248" viewBox="0 0 512 248" fill="none" xmlns="http://www.w3.org/2000/svg">
<path d="M506.134 109.843C506.128 109.837 506.123 109.83 506.116 109.824L401.612 5.82406C393.783 -1.96694 381.12 -1.93795 373.327 5.89205C365.535 13.7211 365.565 26.384 373.394 34.176L443.558 104H20C8.954 104 0 112.954 0 124C0 135.046 8.954 144 20 144H443.557L373.395 213.824C365.566 221.616 365.536 234.279 373.328 242.108C381.121 249.939 393.785 249.966 401.613 242.176L506.117 138.176C506.123 138.17 506.128 138.163 506.135 138.157C513.968 130.339 513.943 117.635 506.134 109.843Z" fill="white"/>
</svg>
