<svg width="60" height="60" viewBox="0 0 60 60" fill="none" xmlns="http://www.w3.org/2000/svg">
<path d="M29.988 38C33.848 38 36.988 34.859 36.988 31C36.988 27.141 33.848 24 29.988 24C26.128 24 22.988 27.141 22.988 31C22.988 34.859 26.128 38 29.988 38ZM29.988 26C32.745 26 34.988 28.243 34.988 31C34.988 33.757 32.745 36 29.988 36C27.231 36 24.988 33.757 24.988 31C24.988 28.243 27.231 26 29.988 26Z" fill="white"/>
<path d="M29.988 32C30.5403 32 30.988 31.5523 30.988 31C30.988 30.4477 30.5403 30 29.988 30C29.4358 30 28.988 30.4477 28.988 31C28.988 31.5523 29.4358 32 29.988 32Z" fill="white"/>
<path d="M0 0V38.607V48.871V57.129V60H2.343H13.656H22.38H37.62H46.344H57.657H60V57.129V48.871V38.607V0H0ZM37.351 2C36.968 2.056 36.635 2.332 36.529 2.729L35.728 5.718C34.185 5.349 32.605 5.124 31 5.052V2H37.351ZM29 5.046C27.386 5.108 25.796 5.329 24.244 5.699L23.448 2.729C23.342 2.333 23.009 2.057 22.628 2H29V5.046ZM22.572 2C22.458 1.99 22.341 1.991 22.224 2.022C21.69 2.165 21.374 2.713 21.517 3.247L22.319 6.241C20.802 6.733 19.334 7.359 17.932 8.118L16.355 5.386C16.079 4.907 15.466 4.742 14.989 5.02C14.51 5.296 14.347 5.908 14.623 6.386L16.212 9.137C14.876 9.994 13.613 10.962 12.445 12.041L10.191 9.787C9.8 9.396 9.168 9.396 8.777 9.787C8.386 10.178 8.386 10.81 8.777 11.201L11.03 13.454C9.946 14.614 8.956 15.863 8.091 17.202L5.376 15.634C4.895 15.356 4.284 15.521 4.007 16C3.731 16.479 3.895 17.09 4.373 17.366L7.073 18.925C6.418 20.132 5.864 21.396 5.407 22.705C5.35 22.786 5.292 22.867 5.26 22.966C5.238 23.033 5.244 23.1 5.237 23.167C4.99 23.922 4.772 24.689 4.598 25.472C4.478 26.011 4.817 26.545 5.356 26.665C5.899 26.788 6.43 26.447 6.55 25.907C6.652 25.449 6.787 25.003 6.916 24.555L20.168 28.861C20.271 28.894 20.375 28.91 20.477 28.91C20.899 28.91 21.291 28.641 21.428 28.219C21.598 27.695 21.311 27.13 20.786 26.959L7.553 22.659C10.954 13.814 19.563 7.437 29 7.046V21C29 21.553 29.448 22 30 22C30.552 22 31 21.553 31 21V7.053C40.505 7.511 49.113 13.883 52.457 22.647L39.189 26.959C38.664 27.13 38.376 27.694 38.547 28.219C38.684 28.642 39.076 28.91 39.498 28.91C39.6 28.91 39.705 28.894 39.807 28.861L53.087 24.546C53.218 25.007 53.352 25.467 53.454 25.939C53.555 26.408 53.969 26.729 54.431 26.729C54.5 26.729 54.571 26.722 54.642 26.707C55.182 26.592 55.526 26.06 55.41 25.519C55.229 24.676 54.992 23.853 54.726 23.042C54.72 23.016 54.725 22.99 54.717 22.965C54.705 22.929 54.679 22.904 54.664 22.871C54.201 21.496 53.622 20.172 52.935 18.907L55.604 17.366C56.083 17.09 56.246 16.478 55.97 16C55.694 15.521 55.083 15.356 54.604 15.634L51.916 17.186C51.049 15.849 50.055 14.6 48.963 13.441L51.202 11.202C51.593 10.811 51.593 10.179 51.202 9.788C50.811 9.397 50.179 9.397 49.788 9.788L47.542 12.034C46.371 10.961 45.105 9.997 43.764 9.143L45.355 6.387C45.631 5.908 45.467 5.297 44.989 5.021C44.51 4.744 43.899 4.909 43.623 5.387L42.039 8.13C40.638 7.378 39.171 6.753 37.653 6.262L38.461 3.249C38.604 2.716 38.288 2.167 37.754 2.024C37.632 1.99 37.51 1.988 37.392 2H58V38.325C56.692 37.865 55.712 36.74 55.492 35.31L54.983 32H48.799L48.06 35.842C47.812 37.128 46.976 38.155 45.766 38.655C44.556 39.156 43.239 39.022 42.153 38.288L38.914 36.095L34.542 40.467L36.522 43.168C37.303 44.232 37.481 45.602 36.999 46.83C36.517 48.059 35.455 48.942 34.158 49.191L31 49.799V55.983L34.31 56.493C35.337 56.651 36.209 57.201 36.795 58.001H23.205C23.791 57.202 24.664 56.652 25.691 56.493L29.001 55.983V49.799L25.844 49.192C24.547 48.943 23.485 48.06 23.003 46.831C22.521 45.602 22.699 44.233 23.48 43.169L25.461 40.468L21.088 36.096L17.849 38.289C16.765 39.025 15.448 39.159 14.237 38.657C13.026 38.155 12.19 37.13 11.942 35.843L11.201 32H5.017L4.508 35.31C4.288 36.741 3.308 37.865 2 38.325V2H22.572ZM3.112 58C2.679 57.578 2.307 57.109 2 56.602V49.398C3.264 47.296 5.541 46 8 46C11.86 46 15 49.141 15 53C15 54.882 14.234 56.684 12.887 58H3.112ZM15.46 58C16.447 56.531 17 54.797 17 53C17 48.037 12.962 44 8 44C5.748 44 3.628 44.86 2 46.322V40.416C4.326 39.9 6.112 38.034 6.484 35.614L6.733 34H9.549L9.976 36.219C10.347 38.15 11.653 39.752 13.47 40.504C15.286 41.257 17.343 41.047 18.969 39.944L20.841 38.676L22.832 40.667L21.867 41.983C20.678 43.604 20.407 45.689 21.141 47.559C21.875 49.431 23.492 50.775 25.466 51.155L27 51.451V54.267L25.386 54.515C23.349 54.828 21.692 56.137 20.91 57.999H15.46V58ZM34.614 54.516L33 54.268V51.452L34.535 51.157C36.509 50.777 38.126 49.433 38.86 47.561C39.594 45.691 39.323 43.606 38.134 41.986L37.168 40.669L39.159 38.678L41.03 39.946C42.658 41.049 44.715 41.257 46.53 40.505C48.346 39.753 49.652 38.151 50.023 36.221L50.451 34H53.267L53.516 35.614C53.888 38.034 55.675 39.9 58 40.416V46.322C56.372 44.86 54.252 44 52 44C47.038 44 43 48.037 43 53C43 54.797 43.552 56.531 44.539 58H39.09C38.308 56.137 36.651 54.828 34.614 54.516ZM47.113 58C45.766 56.684 45 54.882 45 53C45 49.141 48.14 46 52 46C54.459 46 56.735 47.296 58 49.397V56.602C57.694 57.109 57.322 57.578 56.888 57.999H47.113V58Z" fill="white"/>
</svg>
