<svg width="58" height="60" viewBox="0 0 58 60" fill="none" xmlns="http://www.w3.org/2000/svg">
<path d="M30.634 37.9891C31.675 37.9081 32.624 37.3771 33.24 36.5301L42.603 23.5861C42.89 23.1891 42.847 22.6411 42.499 22.2931C42.151 21.9461 41.603 21.9031 41.206 22.1891L28.26 31.5551C27.416 32.1691 26.885 33.1181 26.804 34.1591C26.723 35.2001 27.1 36.2191 27.837 36.9561C28.508 37.6281 29.413 38.0001 30.354 38.0001C30.447 38.0001 30.54 37.9961 30.634 37.9891ZM28.798 34.3151C28.833 33.8581 29.067 33.4411 29.435 33.1731L37.332 27.4601L31.621 35.3551C31.351 35.7261 30.934 35.9591 30.477 35.9951C30.022 36.0251 29.575 35.8671 29.25 35.5421C28.928 35.2191 28.762 34.7711 28.798 34.3151Z" fill="white"/>
<path d="M53.0339 19.564C53.0239 19.543 53.0239 19.521 53.0129 19.5C53.0009 19.48 52.9819 19.469 52.9689 19.45C51.9579 17.716 50.7619 16.103 49.4039 14.641L51.5519 12.494L52.9659 13.908L57.2079 9.665L52.9659 5.423L48.7229 9.665L50.1379 11.08L47.9899 13.227C46.5279 11.869 44.9159 10.672 43.1809 9.661C43.1619 9.648 43.1509 9.629 43.1309 9.617C43.1099 9.605 43.0879 9.606 43.0669 9.595C39.9739 7.813 36.4989 6.626 32.7939 6.191V5H34.2939C35.6729 5 36.7939 3.879 36.7939 2.5C36.7939 1.121 35.6719 0 34.2929 0H25.2929C23.9139 0 22.7929 1.121 22.7929 2.5C22.7929 3.879 23.9139 5 25.2929 5H26.7929V6.156C25.7129 6.271 24.6349 6.447 23.5689 6.691C23.0309 6.814 22.6939 7.351 22.8179 7.889C22.9409 8.427 23.4779 8.765 24.0159 8.64C24.9359 8.429 25.8649 8.27 26.7959 8.163L27.8689 8.08C28.1969 8.055 28.4989 8.037 28.7929 8.023V10C28.7929 10.553 29.2399 11 29.7929 11C30.3459 11 30.7929 10.553 30.7929 10V8.03C34.5539 8.203 38.0979 9.213 41.2489 10.875L40.2629 12.582C39.9869 13.061 40.1509 13.672 40.6289 13.948C40.7859 14.039 40.9579 14.082 41.1279 14.082C41.4739 14.082 41.8099 13.903 41.9949 13.582L42.9779 11.879C46.1069 13.864 48.7649 16.522 50.7499 19.651L49.0469 20.634C48.5699 20.91 48.4059 21.521 48.6829 22C48.8689 22.321 49.2039 22.5 49.5499 22.5C49.7199 22.5 49.8919 22.457 50.0489 22.366L51.7559 21.38C53.4409 24.576 54.4539 28.178 54.6049 31.999H52.6299C52.0769 31.999 51.6299 32.446 51.6299 32.999C51.6299 33.552 52.0769 33.999 52.6299 33.999H54.6049C54.4539 37.82 53.4409 41.422 51.7559 44.618L50.0489 43.632C49.5709 43.356 48.9589 43.518 48.6829 43.998C48.4069 44.477 48.5709 45.088 49.0489 45.364L50.7519 46.347C48.7669 49.476 46.1089 52.134 42.9799 54.119L41.9969 52.416C41.7199 51.936 41.1069 51.773 40.6309 52.05C40.1519 52.326 39.9879 52.938 40.2649 53.416L41.2509 55.123C38.0999 56.785 34.5559 57.795 30.7949 57.968V56C30.7949 55.447 30.3479 55 29.7949 55C29.2419 55 28.7949 55.447 28.7949 56V57.976C27.1979 57.921 25.5959 57.721 24.0189 57.359C23.4809 57.23 22.9439 57.572 22.8209 58.11C22.6969 58.648 23.0339 59.185 23.5719 59.308C25.5679 59.768 27.6069 60 29.6299 60C29.6789 60 29.7259 59.997 29.7749 59.996C29.7819 59.996 29.7869 60 29.7929 60C29.8009 60 29.8079 59.995 29.8159 59.995C34.6229 59.962 39.1329 58.664 43.0349 56.422C43.0659 56.408 43.0989 56.401 43.1289 56.383C43.1489 56.371 43.1599 56.352 43.1789 56.339C47.2179 53.985 50.5929 50.614 52.9519 46.578C52.9709 46.551 52.9949 46.53 53.0119 46.5C53.0239 46.479 53.0229 46.457 53.0329 46.436C55.3169 42.476 56.6299 37.89 56.6299 33C56.6299 28.11 55.3169 23.524 53.0339 19.564ZM52.9649 8.251L54.3789 9.665L52.9649 11.08L51.5499 9.665L52.9649 8.251ZM28.7929 6.021V3H25.2929C25.0179 3 24.7929 2.775 24.7929 2.5C24.7929 2.225 25.0179 2 25.2929 2H34.2929C34.5679 2 34.7929 2.225 34.7929 2.5C34.7929 2.775 34.5679 3 34.2929 3H30.7929V6.021C30.4449 6.007 30.1129 6 29.7929 6C29.7649 6 29.7329 6.002 29.7049 6.002C29.6799 6.002 29.6549 6 29.6299 6C29.4659 6 29.3019 6.011 29.1379 6.014C29.0219 6.017 28.9129 6.016 28.7929 6.021Z" fill="white"/>
<path d="M20.793 14H15.793C15.24 14 14.793 14.447 14.793 15C14.793 15.553 15.24 16 15.793 16H20.793C21.346 16 21.793 15.553 21.793 15C21.793 14.447 21.346 14 20.793 14Z" fill="white"/>
<path d="M20.793 21H10.793C10.24 21 9.79297 21.447 9.79297 22C9.79297 22.553 10.24 23 10.793 23H20.793C21.346 23 21.793 22.553 21.793 22C21.793 21.447 21.346 21 20.793 21Z" fill="white"/>
<path d="M20.793 28H5.79297C5.23997 28 4.79297 28.447 4.79297 29C4.79297 29.553 5.23997 30 5.79297 30H20.793C21.346 30 21.793 29.553 21.793 29C21.793 28.447 21.346 28 20.793 28Z" fill="white"/>
<path d="M20.793 35H1.79297C1.23997 35 0.792969 35.447 0.792969 36C0.792969 36.553 1.23997 37 1.79297 37H20.793C21.346 37 21.793 36.553 21.793 36C21.793 35.447 21.346 35 20.793 35Z" fill="white"/>
<path d="M20.793 42H7.79297C7.23997 42 6.79297 42.447 6.79297 43C6.79297 43.553 7.23997 44 7.79297 44H20.793C21.346 44 21.793 43.553 21.793 43C21.793 42.447 21.346 42 20.793 42Z" fill="white"/>
<path d="M20.793 49H13.793C13.24 49 12.793 49.447 12.793 50C12.793 50.553 13.24 51 13.793 51H20.793C21.346 51 21.793 50.553 21.793 50C21.793 49.447 21.346 49 20.793 49Z" fill="white"/>
</svg>
