<svg width="58" height="27" viewBox="0 0 58 27" fill="none" xmlns="http://www.w3.org/2000/svg">
<path d="M57.6549 12.873C50.0419 5.19902 39.8969 0.973022 29.0869 0.973022C29.0609 0.973022 29.0359 0.975023 29.0099 0.975023C28.9969 0.975023 28.9849 0.973022 28.9729 0.973022C28.9369 0.973022 28.9019 0.978023 28.8669 0.978023C18.1399 1.03502 8.07988 5.25102 0.519885 12.873L0.289885 13.105C-0.0991153 13.497 -0.0961153 14.13 0.295885 14.519C0.490885 14.712 0.745885 14.809 0.999885 14.809C1.25688 14.809 1.51488 14.71 1.70988 14.513L1.93988 14.281C7.18488 8.99402 13.6979 5.44002 20.7959 3.87902C17.8569 6.26402 15.9729 9.90102 15.9729 13.973C15.9729 21.141 21.8049 26.973 28.9729 26.973C36.1409 26.973 41.9729 21.141 41.9729 13.973C41.9729 9.85702 40.0449 6.18902 37.0509 3.80602C44.2769 5.32802 50.9089 8.91302 56.2349 14.282C56.6239 14.675 57.2579 14.677 57.6489 14.288C58.0409 13.898 58.0439 13.265 57.6549 12.873ZM39.9729 13.972C39.9729 20.037 35.0379 24.972 28.9729 24.972C22.9079 24.972 17.9729 20.037 17.9729 13.972C17.9729 7.94302 22.8509 3.03502 28.8659 2.97702C28.9139 2.97702 28.9619 2.97402 29.0099 2.97402C35.0579 2.99502 39.9729 7.92002 39.9729 13.972Z" fill="white"/>
<path d="M36 12.972C35.448 12.972 35 13.42 35 13.972C35 17.281 32.309 19.972 29 19.972C25.691 19.972 23 17.281 23 13.972C23 10.663 25.691 7.97205 29 7.97205C29.552 7.97205 30 7.52405 30 6.97205C30 6.42005 29.552 5.97205 29 5.97205C24.589 5.97205 21 9.56105 21 13.972C21 18.383 24.589 21.972 29 21.972C33.411 21.972 37 18.383 37 13.972C37 13.42 36.552 12.972 36 12.972Z" fill="white"/>
</svg>
