<svg width="456" height="512" viewBox="0 0 456 512" fill="none" xmlns="http://www.w3.org/2000/svg">
<path d="M306.954 137.804H61.7649C57.6049 137.804 54.2329 141.176 54.2329 145.336C54.2329 149.496 57.6049 152.868 61.7649 152.868H306.955C311.115 152.868 314.487 149.496 314.487 145.336C314.487 141.176 311.114 137.804 306.954 137.804Z" fill="white"/>
<path d="M61.7649 100.621H184.359C188.519 100.621 191.891 97.249 191.891 93.089C191.891 88.929 188.519 85.557 184.359 85.557H61.7649C57.6049 85.557 54.2329 88.929 54.2329 93.089C54.2329 97.25 57.6049 100.621 61.7649 100.621V100.621Z" fill="white"/>
<path d="M306.954 184.096H61.7649C57.6049 184.096 54.2329 187.468 54.2329 191.628C54.2329 195.788 57.6049 199.16 61.7649 199.16H306.955C311.115 199.16 314.487 195.788 314.487 191.628C314.486 187.468 311.114 184.096 306.954 184.096Z" fill="white"/>
<path d="M117.618 459.668H39.151C26.272 459.668 15.793 449.19 15.793 436.311V38.421C15.793 25.542 26.272 15.063 39.151 15.063H265.207C265.937 15.063 266.656 15.13 267.367 15.226V62.2C267.367 83.386 284.603 100.621 305.788 100.621H352.761C352.858 101.333 352.924 102.052 352.924 102.782V231.043C352.924 235.203 356.296 238.575 360.456 238.575C364.616 238.575 367.988 235.203 367.988 231.043V102.783C367.988 94.521 364.77 86.753 358.928 80.91L287.078 9.06C281.236 3.218 273.469 0 265.207 0H39.151C17.965 0 0.72998 17.236 0.72998 38.421V436.311C0.72998 457.496 17.966 474.731 39.151 474.731H117.618C121.778 474.731 125.15 471.359 125.15 467.199C125.15 463.039 121.778 459.668 117.618 459.668V459.668ZM342.273 85.558H305.789C292.91 85.558 282.431 75.079 282.431 62.2V25.716L342.273 85.558Z" fill="white"/>
<path d="M452.958 368.729L389.14 261.009C384.489 253.155 374.367 250.559 366.509 255.214L350.986 264.411C338.937 271.549 333.844 285.994 337.981 298.795C332.751 300.69 327.017 300.66 321.737 298.619C309.481 294.763 300.163 287.006 284.774 290.898C258.644 297.551 259.438 297.218 257.074 298.028C241.774 289.317 232.577 286.725 216.335 293.008L201.857 298.605C195.154 301.195 187.768 300.581 181.574 296.911L177.623 294.582C179.551 283.03 174.428 270.839 163.58 264.413C163.58 264.413 163.58 264.413 163.579 264.412L148.057 255.216C140.221 250.575 130.069 253.173 125.427 261.009L61.6069 368.73C56.9559 376.582 59.5439 386.707 67.3999 391.36L82.9219 400.556C87.6189 403.339 92.7809 404.662 97.8809 404.662C103.568 404.662 109.175 403.014 113.969 399.91L117.204 401.819L110.374 411.332C102.235 422.67 104.821 438.436 116.161 446.576C121.405 450.34 127.993 452.059 134.806 450.989C135.887 457.308 139.349 463.222 144.955 467.248C150.22 471.028 156.778 472.749 163.603 471.674C164.687 477.988 168.147 483.897 173.75 487.92C181.28 493.325 190.642 493.95 198.443 490.618C200.15 495.052 203.117 499.056 207.256 502.028C218.064 509.785 232.952 507.762 241.35 497.712L259.5 508.464C271.503 515.577 286.99 511.624 294.107 499.607C295.927 496.535 297.056 493.187 297.469 489.746L297.51 489.771C309.495 496.869 325.017 492.895 332.117 480.913C334.173 477.442 335.3 473.677 335.574 469.904C346.138 472.56 357.651 468.123 363.481 458.283C365.394 455.055 366.503 451.568 366.868 448.059C378.19 452.502 391.423 448.208 397.817 437.416C401.256 431.611 402.229 424.815 400.556 418.278C399.599 414.538 397.839 411.143 395.423 408.276L405.427 402.431C413.89 405.905 423.548 405.349 431.642 400.555L447.162 391.359C455.018 386.709 457.613 376.586 452.958 368.729V368.729ZM90.5999 387.597L75.0779 378.4C74.3879 377.991 74.1589 377.097 74.5669 376.407L138.387 268.684C138.798 267.991 139.695 267.766 140.381 268.174L155.902 277.369C162.799 281.456 164.957 290.302 160.945 297.073L110.304 382.553C106.262 389.377 97.4239 391.638 90.5999 387.597V387.597ZM124.945 434.339C120.371 431.055 119.325 424.693 122.611 420.117L132.65 406.133C135.848 401.678 142.221 400.459 146.872 403.798C151.437 407.075 152.484 413.454 149.208 418.019L139.168 432.003C135.891 436.57 129.508 437.614 124.945 434.339V434.339ZM153.74 455.012C149.175 451.734 148.128 445.353 151.405 440.789L161.444 426.806C161.444 426.806 161.444 426.806 161.444 426.805C161.444 426.805 161.444 426.804 161.445 426.804L172.524 411.372C174.112 409.161 176.465 407.699 179.151 407.259C179.709 407.167 180.268 407.122 180.823 407.122C182.937 407.122 184.994 407.78 186.746 409.037C188.956 410.625 190.418 412.977 190.858 415.663C191.299 418.35 190.668 421.047 189.08 423.258L167.961 452.676C164.679 457.251 158.316 458.298 153.74 455.012V455.012ZM182.535 475.683C177.972 472.407 176.924 466.031 180.195 461.467C180.196 461.465 180.198 461.463 180.199 461.461L201.318 432.044C204.593 427.48 210.977 426.432 215.54 429.708C220.105 432.985 221.152 439.365 217.875 443.93L208.492 457.001C208.492 457.001 208.492 457.001 208.491 457.002L196.756 473.348C193.479 477.913 187.101 478.962 182.535 475.683V475.683ZM216.041 489.791C211.479 486.515 210.43 480.142 213.699 475.577L220.728 465.787C224.004 461.221 230.387 460.177 234.95 463.452C239.514 466.728 240.562 473.109 237.285 477.674L230.262 487.455C226.986 492.021 220.604 493.069 216.041 489.791V489.791ZM384.86 429.739C381.994 434.576 375.73 436.18 370.892 433.315C362.7 428.462 309.856 397.155 304.222 393.817C300.642 391.697 296.023 392.878 293.903 396.457C291.783 400.036 292.964 404.656 296.543 406.776L346.946 436.637L346.947 436.638C351.786 439.504 353.4 445.749 350.523 450.607C347.656 455.446 341.389 457.047 336.553 454.184C317.911 443.14 302.774 434.172 286.123 424.307C282.542 422.187 277.924 423.368 275.804 426.947C273.684 430.526 274.865 435.146 278.444 437.266L315.582 459.268L315.59 459.273C320.432 462.148 322.03 468.39 319.159 473.238C316.292 478.077 310.027 479.68 305.188 476.814L285.257 465.007C285.255 465.006 285.252 465.005 285.25 465.003C285.248 465.002 285.246 465.001 285.244 465L270.699 456.382C267.119 454.261 262.5 455.442 260.38 459.022C258.26 462.601 259.441 467.221 263.02 469.341L277.568 477.96C277.57 477.961 277.572 477.963 277.574 477.964C282.413 480.83 284.027 487.074 281.15 491.932C278.283 496.771 272.018 498.374 267.179 495.508L250.208 485.455C257.483 474.229 254.716 459.101 243.735 451.219C240.51 448.905 236.919 447.464 233.246 446.845C237.142 436.428 233.783 424.266 224.324 417.476C218.724 413.454 212.019 412.065 205.691 413.057C204.565 406.472 200.964 400.704 195.531 396.805C185.313 389.472 171.427 390.881 162.85 399.558C161.107 396.497 158.701 393.751 155.657 391.566C147.166 385.472 136.142 385.415 127.736 390.548L124.285 388.511L171.655 308.552L173.91 309.882C183.87 315.782 196.024 317.012 207.288 312.656L221.766 307.059C230.051 303.857 234.62 303.648 242.815 307.515C237.453 313.539 234.27 321.448 234.27 329.972V363.367C234.27 372.237 241.481 379.458 250.344 379.464H250.366C259.256 379.464 267.616 376.003 273.905 369.718C277.571 366.054 280.277 361.686 281.899 356.918C291.624 362.677 371.971 410.256 381.286 415.775C383.629 417.163 385.291 419.38 385.966 422.018C386.641 424.653 386.248 427.396 384.86 429.739V429.739ZM439.488 378.4L423.965 387.597C417.141 391.637 408.303 389.374 404.263 382.554L380.527 342.489C378.406 338.91 373.784 337.729 370.208 339.847C366.629 341.967 365.447 346.587 367.566 350.166L391.302 390.232C391.749 390.986 392.234 391.703 392.736 392.402L386.137 396.257C384.803 397.047 383.52 397.917 382.293 398.862L279.97 338.267C274.957 335.3 268.601 338.917 268.601 344.747C268.522 345.197 269.379 352.939 263.256 359.06C259.812 362.501 255.234 364.397 250.365 364.397C250.361 364.397 250.357 364.397 250.353 364.397C249.79 364.397 249.332 363.933 249.332 363.363V329.968C249.332 321.244 255.334 313.884 263.451 311.829L288.467 305.498C297.544 303.204 302.675 308.051 316.266 312.651C325.701 316.301 335.96 316.076 345.066 312.187L349.612 319.861C351.733 323.442 356.353 324.622 359.931 322.503C363.51 320.383 364.692 315.763 362.573 312.184L353.619 297.071C349.568 290.233 351.825 281.421 358.662 277.368L374.184 268.173C374.862 267.77 375.759 267.976 376.179 268.684L439.997 376.405C440.409 377.1 440.182 377.989 439.488 378.4V378.4Z" fill="white"/>
</svg>
