<svg width="66" height="67" viewBox="0 0 66 67" fill="none" xmlns="http://www.w3.org/2000/svg">
<path d="M19.3617 0C8.686 0 0 8.8584 0 19.746V47.0866C0 57.9742 8.686 66.8326 19.3617 66.8326H46.1702C56.8459 66.8326 65.5319 57.9742 65.5319 47.0866V19.746C65.5319 8.8584 56.8459 0 46.1702 0H19.3617ZM19.3617 3.03784H46.1702C55.2344 3.03784 62.5532 10.5019 62.5532 19.746V47.0866C62.5532 56.3307 55.2344 63.7947 46.1702 63.7947H19.3617C10.2975 63.7947 2.97872 56.3307 2.97872 47.0866V19.746C2.97872 10.5019 10.2975 3.03784 19.3617 3.03784ZM50.6383 12.1514C48.9938 12.1514 47.6596 13.5121 47.6596 15.1892C47.6596 16.8664 48.9938 18.2271 50.6383 18.2271C52.2828 18.2271 53.617 16.8664 53.617 15.1892C53.617 13.5121 52.2828 12.1514 50.6383 12.1514ZM32.766 16.7081C23.7348 16.7081 16.383 24.2058 16.383 33.4163C16.383 42.6267 23.7348 50.1244 32.766 50.1244C41.7971 50.1244 49.1489 42.6267 49.1489 33.4163C49.1489 24.2058 41.7971 16.7081 32.766 16.7081ZM32.766 19.746C40.1856 19.746 46.1702 25.8494 46.1702 33.4163C46.1702 40.9832 40.1856 47.0866 32.766 47.0866C25.3463 47.0866 19.3617 40.9832 19.3617 33.4163C19.3617 25.8494 25.3463 19.746 32.766 19.746Z" fill="white"/>
</svg>
