<svg width="51" height="51" viewBox="0 0 51 51" fill="none" xmlns="http://www.w3.org/2000/svg">
<g clip-path="url(#clip0)">
<path d="M50.3062 0.345703H0.306213V50.3457H50.3062V0.345703Z" fill="#008AD3"/>
<path d="M16.3062 3.3457C9.13824 3.3457 3.30621 9.17773 3.30621 16.3457V34.3457C3.30621 41.5137 9.13824 47.3457 16.3062 47.3457H34.3062C41.4742 47.3457 47.3062 41.5137 47.3062 34.3457V16.3457C47.3062 9.17773 41.4742 3.3457 34.3062 3.3457H16.3062ZM16.3062 5.3457H34.3062C40.3922 5.3457 45.3062 10.2598 45.3062 16.3457V34.3457C45.3062 40.4316 40.3922 45.3457 34.3062 45.3457H16.3062C10.2203 45.3457 5.30621 40.4316 5.30621 34.3457V16.3457C5.30621 10.2598 10.2203 5.3457 16.3062 5.3457ZM37.3062 11.3457C36.202 11.3457 35.3062 12.2415 35.3062 13.3457C35.3062 14.4499 36.202 15.3457 37.3062 15.3457C38.4104 15.3457 39.3062 14.4499 39.3062 13.3457C39.3062 12.2415 38.4104 11.3457 37.3062 11.3457ZM25.3062 14.3457C19.2424 14.3457 14.3062 19.2819 14.3062 25.3457C14.3062 31.4095 19.2424 36.3457 25.3062 36.3457C31.37 36.3457 36.3062 31.4095 36.3062 25.3457C36.3062 19.2819 31.37 14.3457 25.3062 14.3457ZM25.3062 16.3457C30.288 16.3457 34.3062 20.3639 34.3062 25.3457C34.3062 30.3275 30.288 34.3457 25.3062 34.3457C20.3244 34.3457 16.3062 30.3275 16.3062 25.3457C16.3062 20.3639 20.3244 16.3457 25.3062 16.3457Z" fill="white"/>
</g>
<defs>
<clipPath id="clip0">
<rect width="50" height="50" fill="white" transform="translate(0.306213 0.345703)"/>
</clipPath>
</defs>
</svg>
