<svg width="48" height="60" viewBox="0 0 48 60" fill="none" xmlns="http://www.w3.org/2000/svg">
<path d="M47.707 58.293L45 55.586V20.586L44.503 20.089L40 15.586V0H0V52H5V57H43.586L46.293 59.707C46.488 59.902 46.744 60 47 60C47.256 60 47.512 59.902 47.707 59.707C48.098 59.316 48.098 58.684 47.707 58.293ZM41.586 20H30V8.414L40 18.414L41.586 20ZM2 50V2H38V13.586L29.911 5.497L29.414 5H5V50H2ZM7 55V52V7H28V22H43V53.586L35.486 46.072C37.226 44.012 38.281 41.355 38.281 38.453C38.281 31.931 32.975 26.625 26.453 26.625C19.931 26.625 14.625 31.931 14.625 38.453C14.625 44.975 19.931 50.281 26.453 50.281C29.355 50.281 32.012 49.226 34.072 47.486L41.586 55H7ZM26.453 48.281C21.034 48.281 16.625 43.872 16.625 38.453C16.625 33.034 21.034 28.625 26.453 28.625C31.872 28.625 36.281 33.034 36.281 38.453C36.281 43.872 31.872 48.281 26.453 48.281Z" fill="white"/>
<path d="M20.625 36H26.625C27.178 36 27.625 35.553 27.625 35C27.625 34.447 27.178 34 26.625 34H20.625C20.072 34 19.625 34.447 19.625 35C19.625 35.553 20.072 36 20.625 36Z" fill="white"/>
<path d="M32.625 40H20.625C20.072 40 19.625 40.447 19.625 41C19.625 41.553 20.072 42 20.625 42H32.625C33.178 42 33.625 41.553 33.625 41C33.625 40.447 33.178 40 32.625 40Z" fill="white"/>
</svg>
