<svg width="56" height="54" viewBox="0 0 56 54" fill="none" xmlns="http://www.w3.org/2000/svg">
<path d="M51.688 22.0129H40.789C40.236 22.0129 39.789 22.4599 39.789 23.0129C39.789 23.5659 40.236 24.0129 40.789 24.0129H49.891L52.79 51.0129H2.268L5.671 24.0129H14.789C15.342 24.0129 15.789 23.5659 15.789 23.0129C15.789 22.4599 15.342 22.0129 14.789 22.0129H3.907L0 53.0129H55.017L51.688 22.0129Z" fill="white"/>
<path d="M26.654 37.968C26.507 38.055 26.35 38.132 26.209 38.223C25.989 38.365 25.774 38.514 25.563 38.668C25.118 38.995 25.022 39.621 25.348 40.066C25.544 40.333 25.848 40.474 26.156 40.474C26.361 40.474 26.568 40.411 26.747 40.281C26.925 40.15 27.106 40.024 27.295 39.902C27.616 39.694 27.957 39.499 28.309 39.321C28.777 39.084 28.967 38.53 28.771 38.052C28.779 38.044 28.789 38.038 28.796 38.03C30.605 36.114 36.701 28.934 39.225 16.972C39.737 14.546 39.852 12.218 39.567 10.053C38.707 3.47795 34.622 0.00195312 27.754 0.00195312C20.888 0.00195312 16.803 3.47795 15.941 10.053C15.657 12.219 15.772 14.547 16.284 16.972C18.783 28.818 24.783 35.97 26.654 37.968ZM17.924 10.314C18.657 4.72195 21.873 2.00295 27.755 2.00295C33.638 2.00295 36.853 4.72195 37.585 10.314C37.84 12.254 37.733 14.357 37.269 16.561C35 27.314 29.59 34.137 27.755 36.207C25.918 34.135 20.509 27.309 18.241 16.561C17.776 14.357 17.67 12.255 17.924 10.314Z" fill="white"/>
<path d="M27.7549 18.9249C31.8059 18.9249 35.1009 15.6299 35.1009 11.5789C35.1009 7.52791 31.8059 4.23291 27.7549 4.23291C23.7039 4.23291 20.4089 7.52791 20.4089 11.5789C20.4089 15.6299 23.7039 18.9249 27.7549 18.9249ZM27.7549 6.23391C30.7019 6.23391 33.1009 8.63191 33.1009 11.5799C33.1009 14.5279 30.7029 16.9259 27.7549 16.9259C24.8069 16.9259 22.4089 14.5279 22.4089 11.5799C22.4089 8.63191 24.8079 6.23391 27.7549 6.23391Z" fill="white"/>
<path d="M31.4281 36.1699C30.8881 36.2839 30.5441 36.8159 30.6591 37.3569C30.7591 37.8269 31.1741 38.1479 31.6361 38.1479C31.7051 38.1479 31.7761 38.1409 31.8461 38.1259C32.4321 38.0019 33.0671 37.8969 33.7321 37.8129C34.2801 37.7459 34.6701 37.2459 34.6011 36.6979C34.5331 36.1489 34.0381 35.7529 33.4861 35.8289C32.7631 35.9179 32.0701 36.0329 31.4281 36.1699Z" fill="white"/>
<path d="M36.5991 36.5759C36.6211 37.1129 37.0651 37.5329 37.5971 37.5329C37.6121 37.5329 37.6261 37.5329 37.6411 37.5319L39.6421 37.4489C40.1931 37.4239 40.6211 36.9559 40.5951 36.4049C40.5701 35.8519 40.0561 35.4209 39.5511 35.4509L37.5551 35.5339C37.0031 35.5569 36.5751 36.0229 36.5991 36.5759Z" fill="white"/>
<path d="M22.433 41.177C21.919 41.565 21.388 41.938 20.853 42.284C20.39 42.585 20.258 43.204 20.559 43.668C20.75 43.963 21.072 44.123 21.399 44.123C21.586 44.123 21.774 44.071 21.943 43.962C22.516 43.59 23.087 43.19 23.638 42.774C24.078 42.441 24.166 41.814 23.834 41.373C23.501 40.936 22.876 40.844 22.433 41.177Z" fill="white"/>
<path d="M44.7199 34.5829C44.3819 34.8199 43.9429 34.9919 43.3739 35.1089C42.8329 35.2199 42.4849 35.7499 42.5969 36.2909C42.6949 36.7639 43.1109 37.0889 43.5759 37.0889C43.6429 37.0889 43.7109 37.0819 43.7789 37.0679C44.6209 36.8939 45.3049 36.6159 45.8749 36.2149L46.0089 36.1169C46.4489 35.7829 46.5359 35.1559 46.2029 34.7159C45.8689 34.2759 45.2429 34.1899 44.8019 34.5219L44.7199 34.5829Z" fill="white"/>
<path d="M8.86002 42.4019C9.00502 41.8689 8.68902 41.3199 8.15602 41.1759C7.62702 41.0269 7.07402 41.3449 6.93002 41.8799C6.80402 42.3439 6.72902 42.8179 6.70502 43.2849C6.70002 43.3999 6.69702 43.5159 6.69702 43.6379C6.69802 43.8339 6.70702 44.0299 6.72602 44.2249C6.77902 44.7399 7.21302 45.1229 7.72002 45.1229C7.75302 45.1229 7.78702 45.1209 7.82302 45.1179C8.37202 45.0609 8.77202 44.5709 8.71702 44.0209C8.70302 43.8899 8.69802 43.7569 8.69702 43.6309C8.69702 43.5479 8.70002 43.4649 8.70402 43.3829C8.72002 43.0589 8.77202 42.7279 8.86002 42.4019Z" fill="white"/>
<path d="M44.698 26.81C43.904 26.704 43.094 26.769 42.312 26.991C41.78 27.14 41.471 27.693 41.622 28.224C41.746 28.665 42.147 28.953 42.583 28.953C42.674 28.953 42.765 28.941 42.855 28.915C43.375 28.769 43.91 28.723 44.43 28.793C44.992 28.863 45.482 28.482 45.555 27.936C45.629 27.387 45.245 26.884 44.698 26.81Z" fill="white"/>
<path d="M46.688 31.7639C46.525 32.2909 46.821 32.8519 47.348 33.0139C47.447 33.0449 47.545 33.0589 47.643 33.0589C48.071 33.0589 48.466 32.7839 48.598 32.3539C48.697 32.0359 48.758 31.7129 48.781 31.3909C48.786 31.3079 48.789 31.2239 48.789 31.1409C48.789 30.6729 48.703 30.2039 48.534 29.7489C48.342 29.2299 47.763 28.9679 47.249 29.1589C46.73 29.3509 46.467 29.9269 46.659 30.4439C46.745 30.6759 46.789 30.9109 46.789 31.1399L46.786 31.2569C46.774 31.4229 46.742 31.5889 46.688 31.7639Z" fill="white"/>
<path d="M17.4811 44.1639C16.8951 44.4389 16.2981 44.6939 15.7071 44.9229C15.1921 45.1209 14.9361 45.6999 15.1351 46.2159C15.2881 46.6119 15.6661 46.8559 16.0681 46.8559C16.1881 46.8559 16.3101 46.8349 16.4281 46.7889C17.0631 46.5439 17.7031 46.2699 18.3311 45.9759C18.8311 45.7419 19.0461 45.1459 18.8111 44.6459C18.5781 44.1449 17.9841 43.9279 17.4811 44.1639Z" fill="white"/>
<path d="M10.201 40.001C10.362 40.001 10.526 39.962 10.679 39.879C10.967 39.722 11.274 39.624 11.59 39.59C11.725 39.574 11.863 39.574 11.996 39.592C12.559 39.665 13.046 39.279 13.118 38.732C13.19 38.184 12.805 37.682 12.258 37.61C11.96 37.571 11.657 37.569 11.367 37.602C10.793 37.665 10.239 37.841 9.72104 38.123C9.23604 38.388 9.05704 38.994 9.32204 39.479C9.50404 39.813 9.84704 40.001 10.201 40.001Z" fill="white"/>
<path d="M9.99306 47.842C10.2091 47.898 10.4291 47.94 10.6471 47.966C10.9031 47.997 11.1591 48.013 11.4161 48.013C11.7291 48.013 12.0431 47.991 12.3561 47.951C12.9041 47.882 13.2931 47.382 13.2231 46.834C13.1531 46.286 12.6561 45.9 12.1061 45.967C11.7021 46.019 11.2941 46.031 10.8901 45.982C10.7581 45.965 10.6261 45.94 10.4961 45.907C9.96106 45.764 9.41606 46.088 9.27606 46.623C9.13906 47.158 9.45906 47.704 9.99306 47.842Z" fill="white"/>
</svg>
