<svg width="512" height="512" viewBox="0 0 512 512" fill="none" xmlns="http://www.w3.org/2000/svg">
<path d="M341.954 328.358C329.823 328.358 319.954 319.816 319.954 309.317C319.954 298.817 329.823 290.275 341.954 290.275C354.085 290.275 363.954 298.817 363.954 309.317C363.954 314.839 368.432 319.317 373.954 319.317C379.476 319.317 383.954 314.839 383.954 309.317C383.954 290.992 370.3 275.584 351.954 271.402V266.201C351.954 260.679 347.476 256.201 341.954 256.201C336.432 256.201 331.954 260.679 331.954 266.201V271.402C313.608 275.584 299.954 290.992 299.954 309.317C299.954 330.844 318.795 348.358 341.954 348.358C354.085 348.358 363.954 356.9 363.954 367.4C363.954 377.9 354.085 386.442 341.954 386.442C329.823 386.442 319.954 377.9 319.954 367.4C319.954 361.878 315.476 357.4 309.954 357.4C304.432 357.4 299.954 361.878 299.954 367.4C299.954 385.725 313.608 401.133 331.954 405.315V409.635C331.954 415.157 336.432 419.635 341.954 419.635C347.476 419.635 351.954 415.157 351.954 409.635V405.315C370.3 401.133 383.954 385.725 383.954 367.4C383.954 345.872 365.113 328.358 341.954 328.358Z" fill="white"/>
<path d="M451.482 268.876C438.419 248.521 420.015 232.233 398.26 221.775C393.281 219.381 387.306 221.477 384.914 226.455C382.521 231.433 384.616 237.407 389.594 239.8C427.505 258.024 452 296.963 452 339.001C452 356.989 447.566 374.828 439.179 390.592C436.585 395.467 438.434 401.523 443.31 404.117C444.806 404.913 446.414 405.291 447.998 405.291C451.576 405.291 455.037 403.365 456.835 399.986C466.756 381.342 472 360.253 472 339.001C472 314.041 464.905 289.792 451.482 268.876Z" fill="white"/>
<path d="M357.673 209.002L357 209.001C351.478 209.001 347 213.478 347 219.001C347 224.524 351.478 229.001 357 229.001L357.579 229.002C357.595 229.002 357.61 229.002 357.627 229.002C363.128 229.002 367.6 224.556 367.626 219.049C367.651 213.526 363.195 209.028 357.673 209.002Z" fill="white"/>
<path d="M294.407 438.202C256.497 419.977 232.002 381.038 232.002 339.001C232.002 321.013 236.436 303.174 244.823 287.41C247.417 282.535 245.568 276.479 240.692 273.885C235.818 271.291 229.76 273.14 227.167 278.016C217.246 296.661 212.002 317.749 212.002 339.001C212.002 363.961 219.097 388.209 232.52 409.126C245.583 429.481 263.987 445.769 285.742 456.228C287.139 456.9 288.615 457.217 290.068 457.217C293.792 457.217 297.366 455.128 299.088 451.548C301.479 446.57 299.385 440.595 294.407 438.202Z" fill="white"/>
<path d="M327.002 449.001L326.423 448.999C320.875 448.989 316.403 453.428 316.378 458.952C316.352 464.475 320.81 468.973 326.332 468.999L327.002 469.001C332.524 469.001 337.002 464.523 337.002 459.001C337.002 453.479 332.524 449.001 327.002 449.001Z" fill="white"/>
<path d="M387.409 175.168C386.192 172.268 384.701 169.535 382.966 167H409C434.364 167 455 146.364 455 121C455 95.636 434.364 75 409 75H328.92C334.011 67.598 337 58.643 337 49C337 23.636 316.364 3 291 3H46C20.636 3 0 23.636 0 49C0 74.364 20.636 95 46 95H126.08C120.989 102.402 118 111.357 118 121C118 130.643 120.988 139.598 126.08 147H100C74.636 147 54 167.636 54 193C54 207.567 60.814 220.566 71.415 229C60.814 237.434 54 250.433 54 265C54 279.567 60.814 292.566 71.415 301C60.814 309.434 54 322.433 54 337C54 351.567 60.814 364.566 71.415 373C60.814 381.434 54 394.433 54 409C54 434.364 74.636 455 100 455H217.85C248.896 488.207 293.062 509.001 342.001 509.001C435.739 509.001 512.001 432.739 512.001 339.001C512.001 260.984 459.171 195.083 387.409 175.168ZM409 95C423.337 95 435 106.664 435 121C435 135.336 423.337 147 409 147H345H164C149.663 147 138 135.336 138 121C138 106.664 149.663 95 164 95H409ZM46 75C31.663 75 20 63.336 20 49C20 34.664 31.663 23 46 23H291C305.337 23 317 34.664 317 49C317 63.336 305.337 75 291 75H46ZM100 167H345C349.028 167 352.885 167.936 356.345 169.612C351.615 169.215 346.833 169.001 342.001 169.001C295.056 169.001 252.496 188.13 221.702 219H100C85.664 219 74 207.336 74 193C74 178.664 85.664 167 100 167ZM100 239H204.615C193.263 254.553 184.486 272.095 178.912 291H100C85.663 291 74 279.337 74 265C74 250.664 85.663 239 100 239ZM100 311H174.32C172.803 320.113 172.001 329.464 172.001 339.001C172.001 347.147 172.59 355.157 173.703 363H100C85.663 363 74 351.337 74 337C74 322.663 85.663 311 100 311ZM100 435C85.663 435 74 423.337 74 409C74 394.663 85.663 383 100 383H177.786C182.832 401.813 191.029 419.346 201.779 435H100ZM342.001 489.001C259.291 489.001 192.001 421.711 192.001 339.001C192.001 256.291 259.291 189.001 342.001 189.001C424.711 189.001 492.001 256.291 492.001 339.001C492.001 421.711 424.711 489.001 342.001 489.001Z" fill="white"/>
</svg>
