<svg width="66" height="68" viewBox="0 0 66 68" fill="none" xmlns="http://www.w3.org/2000/svg">
<path d="M62.0646 0.0053059C61.3321 0.0405211 60.6212 0.26942 59.9806 0.559945C59.3458 0.846069 55.6915 2.60463 50.295 5.20395C44.8985 7.80327 37.8829 11.1905 30.9298 14.547C17.0216 21.2621 3.35559 27.8671 3.35559 27.8671L3.4552 27.8253C3.4552 27.8253 2.63098 28.1356 1.79309 28.7915C1.37512 29.1217 0.925904 29.5443 0.556763 30.1627C0.189575 30.7812 -0.0799557 31.6572 0.0216068 32.5816C0.377075 35.8368 3.36926 36.759 3.36926 36.759L3.38293 36.7656L16.7364 41.9158C17.0763 43.1967 20.7853 57.1486 21.6017 60.1044C22.0528 61.7375 22.4747 62.6795 22.9142 63.3222C23.1349 63.6436 23.3653 63.8923 23.6212 64.075C23.7208 64.1476 23.8282 64.2026 23.9337 64.251C23.9357 64.251 23.9376 64.2488 23.9396 64.251C23.9532 64.2554 23.965 64.2576 23.9786 64.2642L23.9435 64.2532C23.9669 64.2642 23.9903 64.284 24.0157 64.2928C24.0626 64.3127 24.0919 64.3105 24.1544 64.3259C25.6837 64.9267 26.9493 63.8108 26.9493 63.8108L27.0021 63.7646L35.2052 55.1919L48.5177 66.8878L48.6837 66.9736C51.0138 68.1401 53.1212 67.4886 54.2892 66.419C55.4552 65.3493 55.9142 63.9693 55.9142 63.9693L55.9649 63.824L65.7462 6.37045C65.9962 5.0829 66.0313 3.97362 65.797 2.96999C65.5606 1.96415 64.9864 1.09258 64.2677 0.608366C63.547 0.124157 62.795 -0.0321107 62.0646 0.0053059ZM62.1427 3.44099C62.4396 3.42558 62.6603 3.463 62.7286 3.50922C62.797 3.55764 62.8282 3.55104 62.8966 3.83496C62.963 4.11668 62.9981 4.71314 62.8165 5.64634L62.8106 5.66615L53.0841 62.7874C53.0606 62.8446 52.8575 63.3728 52.3966 63.7976C51.9239 64.2312 51.3985 64.568 50.006 63.9099L35.4474 51.1158L35.0372 50.7526L35.0294 50.7636L30.6759 47.0814L55.1407 14.646C55.5255 14.1376 55.6075 13.4223 55.3536 12.8214C55.0978 12.2184 54.5528 11.842 53.961 11.8596C53.6778 11.8684 53.4024 11.9653 53.1661 12.1435L17.7638 38.7398L4.39075 33.5786C4.39075 33.5786 3.06262 32.7466 2.99817 32.1656C2.99426 32.1348 2.97864 32.1634 3.04895 32.0467C3.11731 31.9323 3.29114 31.7364 3.50793 31.5647C3.94348 31.2236 4.43957 31.0167 4.43957 31.0167L4.49036 30.9969L4.53918 30.9749C4.53918 30.9749 18.2071 24.3676 32.1134 17.6525C39.0665 14.2961 46.0802 10.9132 51.4767 8.31389C56.8692 5.71457 60.7677 3.84376 61.0978 3.6941C61.4728 3.52462 61.8458 3.4564 62.1427 3.44099ZM45.9181 21.6516L27.3653 46.2495L27.3556 46.2605C27.3263 46.3001 27.2989 46.3397 27.2736 46.3815C27.2443 46.4277 27.2169 46.4762 27.1915 46.5246C27.088 46.7249 27.0196 46.945 26.9962 47.1739C26.9943 47.1783 26.9943 47.1827 26.9962 47.1871L24.5782 59.4353C24.5372 59.3033 24.5099 59.2549 24.4669 59.0986V59.0964C23.6993 56.3166 20.1993 43.1571 19.715 41.3391L45.9181 21.6516ZM29.4591 50.2816L32.7931 53.101L27.8946 58.2182L29.4591 50.2816Z" fill="white"/>
</svg>
