<svg width="51" height="51" viewBox="0 0 51 51" fill="none" xmlns="http://www.w3.org/2000/svg">
<g clip-path="url(#clip0)">
<path d="M50.3062 0.860352H0.306213V50.8604H50.3062V0.860352Z" fill="#008AD3"/>
<path d="M9.30621 4.86035C6.55621 4.86035 4.30621 7.11035 4.30621 9.86035V41.8603C4.30621 44.6103 6.55621 46.8603 9.30621 46.8603H41.3062C44.0562 46.8603 46.3062 44.6103 46.3062 41.8603V9.86035C46.3062 7.11035 44.0562 4.86035 41.3062 4.86035H9.30621ZM9.30621 6.86035H41.3062C42.9742 6.86035 44.3062 8.19238 44.3062 9.86035V41.8603C44.3062 43.5283 42.9742 44.8603 41.3062 44.8603H9.30621C7.63824 44.8603 6.30621 43.5283 6.30621 41.8603V9.86035C6.30621 8.19238 7.63824 6.86035 9.30621 6.86035ZM23.702 16.8525C22.6448 16.8499 21.702 16.9098 20.8583 17.3239L20.857 17.3252C20.4455 17.5283 20.1565 17.7848 19.9247 18.0908C19.8101 18.2432 19.6916 18.3812 19.6278 18.7301C19.5966 18.9033 19.5796 19.1859 19.7606 19.4919C19.9429 19.7965 20.3101 19.9697 20.5445 20.001C20.7073 20.0231 21.0744 20.1794 21.1083 20.2262C21.1096 20.2275 21.1096 20.2288 21.1109 20.2301C21.1109 20.2301 21.2528 20.6012 21.2945 20.9333C21.3362 21.264 21.3336 21.5322 21.3336 21.5322C21.3336 21.5596 21.3336 21.5856 21.3349 21.613C21.3349 21.613 21.3935 22.4801 21.3557 23.376C21.3401 23.7327 21.2932 24.0505 21.2463 24.3343C20.8895 23.9424 20.3648 23.2301 19.607 21.9163C18.7658 20.4593 18.0979 19.1533 18.0979 19.1533C18.0627 19.04 17.9377 18.6859 17.4533 18.3291C16.9221 17.9385 16.4104 17.8799 16.4104 17.8799C16.3453 17.8669 16.2802 17.8604 16.2151 17.8604L12.2724 17.863C12.2724 17.863 12.0367 17.8486 11.7528 17.8877C11.4703 17.9268 11.0432 17.958 10.6317 18.4463C10.6317 18.4476 10.6304 18.4476 10.6304 18.4489C10.2632 18.8877 10.2854 19.3734 10.3297 19.6481C10.3739 19.9215 10.4742 20.1299 10.4742 20.1299C10.4755 20.1338 10.4781 20.1377 10.4794 20.1416C10.4794 20.1416 13.7033 26.9202 17.3466 30.9111C19.9924 33.8096 22.7086 33.859 24.9481 33.859H26.62C27.0471 33.859 27.4338 33.8421 27.8609 33.5934C28.288 33.3434 28.5757 32.738 28.5757 32.3174C28.5757 31.8773 28.6421 31.5309 28.7216 31.3525C28.7789 31.2275 28.8244 31.182 28.8935 31.1455C28.9091 31.1546 28.9 31.1494 28.9403 31.1794C29.107 31.2952 29.3817 31.5622 29.6812 31.8955C30.2789 32.5609 30.9573 33.4749 31.8687 34.1012C32.5211 34.5492 33.1382 34.7484 33.607 34.8213C33.9013 34.8669 34.1291 34.8577 34.2906 34.8447L38.025 34.8603C38.0471 34.8603 38.0692 34.8603 38.0914 34.8577C38.0914 34.8577 38.7346 34.8656 39.4039 34.4658C39.7385 34.2653 40.133 33.8864 40.2606 33.333C40.3895 32.7796 40.2281 32.2067 39.913 31.682V31.6807C39.9677 31.7718 39.8635 31.5856 39.7567 31.4111C39.65 31.2367 39.495 31.0023 39.2724 30.7119C38.8283 30.1299 38.1148 29.3161 36.9625 28.2432C36.9612 28.2432 36.9612 28.2432 36.9599 28.2432C36.3752 27.6989 35.9794 27.3135 35.8179 27.0986C35.6565 26.8838 35.7086 26.9971 35.7203 26.9424C35.7424 26.833 36.4455 25.82 37.8739 23.9111C38.7437 22.7497 39.3531 21.8773 39.7554 21.1507C40.1578 20.4255 40.4481 19.7979 40.245 19.0283C40.245 19.027 40.2437 19.0257 40.2437 19.0244C40.1539 18.6872 39.9091 18.376 39.6578 18.2067C39.4065 18.0361 39.1682 17.9697 38.9546 17.9294C38.5276 17.846 38.1552 17.8604 37.8101 17.8604C37.0849 17.8604 33.87 17.8864 33.6044 17.8864C33.2919 17.8864 32.775 18.0283 32.5458 18.165C31.9716 18.5114 31.8062 18.9658 31.8062 18.9658C31.7958 18.9854 31.7867 19.0049 31.7763 19.0244C31.7763 19.0244 31.1135 20.4958 30.2593 21.9489C29.3935 23.4215 28.7541 24.1247 28.3687 24.4502C28.3583 24.3929 28.3596 24.4398 28.3531 24.359C28.3179 23.9463 28.357 23.3786 28.357 22.8239C28.357 21.3291 28.4833 20.2822 28.4156 19.359C28.3817 18.8968 28.2958 18.4202 27.9911 17.9814C27.6877 17.5426 27.1812 17.2588 26.6812 17.1377C26.3804 17.0648 26.0393 16.8773 24.7997 16.8643H24.7984C24.4195 16.8604 24.0549 16.8538 23.702 16.8525ZM24.7789 18.8643C25.8752 18.876 25.6018 18.9359 26.2112 19.083C26.3987 19.1286 26.3531 19.1286 26.3492 19.1221C26.3453 19.1156 26.4 19.2184 26.4221 19.5075C26.4638 20.083 26.357 21.2275 26.357 22.8239C26.357 23.2588 26.3049 23.8786 26.3596 24.527C26.413 25.1742 26.5744 26.0036 27.3479 26.5049C27.7138 26.7419 28.1395 26.7575 28.5041 26.6676C28.8674 26.5765 29.1981 26.3877 29.5445 26.1104C30.2385 25.5557 31.0119 24.6182 31.9846 22.9619C32.8921 21.4163 33.5536 19.9437 33.5757 19.8955C33.5796 19.8916 33.5849 19.8903 33.5901 19.8851C33.6018 19.8864 33.5888 19.8851 33.6057 19.8851C33.9781 19.8851 37.1343 19.8604 37.8101 19.8604C37.9677 19.8604 38.025 19.8695 38.15 19.8734C38.1161 19.9867 38.1539 19.915 38.0054 20.182C37.6942 20.7432 37.1213 21.5778 36.2724 22.7119C34.8791 24.5726 34.0158 25.3018 33.7619 26.5374C33.6343 27.1559 33.8726 27.8408 34.2229 28.3031C34.5718 28.7666 35.0132 29.1637 35.5992 29.708C36.6838 30.7184 37.3205 31.4515 37.6851 31.9281C37.8674 32.1676 37.9833 32.3395 38.0549 32.4554C38.1252 32.5726 38.1083 32.5609 38.2007 32.7132C38.2619 32.8161 38.2398 32.7536 38.2502 32.7835C38.1291 32.8174 37.9846 32.859 37.9768 32.8603L34.2984 32.8447C34.232 32.8447 34.1656 32.8512 34.1018 32.8643C34.1018 32.8643 34.1109 32.8747 33.9143 32.8447C33.7164 32.8148 33.4039 32.7288 33.0015 32.4515C32.5158 32.1182 31.8362 31.3018 31.1695 30.5596C30.8362 30.1885 30.5041 29.8317 30.0914 29.5413C29.6786 29.2523 29.0614 28.9788 28.3948 29.1885C27.702 29.4059 27.163 29.9463 26.9 30.5257C26.7046 30.958 26.6877 31.4098 26.6578 31.8577C26.6252 31.8603 26.663 31.8577 26.6213 31.8577H24.9494C22.6773 31.8577 21.064 32.0153 18.8244 29.5609C15.8101 26.2601 13.0497 20.7679 12.5992 19.8617L16.0679 19.8604C16.1291 19.8838 16.2593 19.9333 16.2672 19.9385C16.2685 19.9398 16.2698 19.9411 16.2711 19.9424C16.1448 19.8499 16.2776 19.9788 16.2776 19.9788C16.2893 20.0088 16.3023 20.0387 16.3179 20.0674C16.3179 20.0674 17.0054 21.4098 17.8752 22.9163C18.7268 24.3942 19.3492 25.3174 19.9494 25.9268C20.2489 26.2314 20.5523 26.4762 20.9573 26.6143C21.3609 26.7523 21.8843 26.7015 22.2359 26.5088C22.9546 26.1156 23.051 25.5348 23.1682 25.0283C23.2841 24.5205 23.331 23.9788 23.3531 23.4619C23.3961 22.4567 23.3349 21.5882 23.3323 21.5335C23.3323 21.5153 23.3362 21.1533 23.2789 20.6885C23.2203 20.2132 23.1539 19.6312 22.7242 19.0452L22.7229 19.0439C22.719 19.04 22.7151 19.04 22.7125 19.0361C23.2815 18.9541 23.7685 18.8538 24.7789 18.8643ZM33.6005 19.8447L33.5875 19.876C33.5849 19.8773 33.5862 19.8747 33.5836 19.876C33.5875 19.8682 33.6005 19.8447 33.6005 19.8447Z" fill="white"/>
</g>
<defs>
<clipPath id="clip0">
<rect width="50" height="50" fill="white" transform="translate(0.306213 0.860352)"/>
</clipPath>
</defs>
</svg>
