<svg width="51" height="51" viewBox="0 0 51 51" fill="none" xmlns="http://www.w3.org/2000/svg">
<g clip-path="url(#clip0)">
<path d="M50.2979 0.794922H0.297852V50.7949H50.2979V0.794922Z" fill="#008AD3"/>
<path d="M25.2979 2.79492C12.6077 2.79492 2.29785 13.1048 2.29785 25.7949C2.29785 29.8743 3.41634 33.6803 5.28223 37.0033L2.33561 47.5254C2.23926 47.8678 2.33301 48.2363 2.5804 48.4915C2.8278 48.7467 3.19238 48.8509 3.53874 48.765L14.5088 46.0462C17.7327 47.7676 21.3903 48.7949 25.2979 48.7949C37.988 48.7949 48.2978 38.485 48.2978 25.7949C48.2978 13.1048 37.988 2.79492 25.2979 2.79492ZM25.2979 4.79492C36.9072 4.79492 46.2978 14.1855 46.2978 25.7949C46.2978 37.4043 36.9072 46.7949 25.2979 46.7949C21.5765 46.7949 18.0895 45.8249 15.0596 44.1283C14.8382 44.0046 14.5778 43.9707 14.3304 44.0306L4.72363 46.4121L7.29915 37.2207C7.37467 36.9577 7.33822 36.6764 7.2002 36.4408C5.35905 33.3184 4.29785 29.6855 4.29785 25.7949C4.29785 14.1855 13.6885 4.79492 25.2979 4.79492ZM16.9411 13.7949C16.2992 13.7949 15.3838 14.0332 14.6325 14.8444C14.1807 15.3301 12.2979 17.1647 12.2979 20.3887C12.2979 23.7507 14.6299 26.6504 14.9111 27.0241H14.9137V27.0254C14.8864 26.9902 15.2705 27.5475 15.7848 28.2155C16.2979 28.8822 17.0153 29.7598 17.9176 30.709C19.721 32.6074 22.2562 34.8027 25.4033 36.1452C26.8525 36.7611 27.9958 37.1348 28.863 37.4069C30.4671 37.9108 31.9294 37.834 33.0283 37.6725C33.8499 37.5514 34.7549 37.1556 35.6494 36.5892C36.5439 36.0241 37.4215 35.3197 37.8083 34.2507C38.0843 33.4837 38.2249 32.7741 38.277 32.1921C38.3018 31.9004 38.3057 31.6426 38.2861 31.4043C38.2666 31.166 38.2874 30.9837 38.0661 30.6191C37.5999 29.8548 37.0726 29.8353 36.5231 29.5632C36.2171 29.4108 35.346 28.9863 34.4736 28.571C33.6012 28.1543 32.8473 27.7871 32.3825 27.6217C32.0882 27.515 31.7288 27.3626 31.2119 27.4225C30.695 27.4811 30.1833 27.8535 29.8864 28.2949C29.6038 28.7129 28.4684 30.0527 28.1221 30.4473C28.1169 30.4447 28.1481 30.4577 28.0114 30.3913C27.583 30.179 27.0596 29.998 26.2848 29.5892C25.5088 29.1816 24.54 28.5775 23.4801 27.6426V27.64C21.9007 26.2507 20.7952 24.5059 20.4463 23.9199C20.4697 23.8926 20.4437 23.9264 20.4932 23.877L20.4958 23.8743C20.8512 23.5241 21.1676 23.1048 21.4346 22.7962C21.8135 22.3613 21.9801 21.9759 22.1611 21.6165C22.5218 20.9017 22.3213 20.1139 22.113 19.6986V19.6973C22.1273 19.7259 21.9997 19.4447 21.863 19.1204C21.7249 18.7962 21.5492 18.3743 21.363 17.9251C20.988 17.028 20.57 16.0202 20.3213 15.429V15.4277C20.0283 14.7324 19.6325 14.2324 19.1143 13.9902C18.596 13.748 18.139 13.8171 18.1208 13.8158H18.1182C17.7484 13.7988 17.3434 13.7949 16.9411 13.7949ZM16.9411 15.7949C17.3265 15.7949 17.7067 15.8001 18.0244 15.8145C18.3525 15.8314 18.3317 15.8327 18.2692 15.8027C18.2041 15.7728 18.2913 15.7637 18.4775 16.2051C18.721 16.7832 19.1416 17.7936 19.5166 18.696C19.7041 19.1465 19.8799 19.5684 20.0205 19.9004C20.1611 20.2324 20.2367 20.4173 20.3252 20.5944V20.5957L20.3278 20.5983C20.4137 20.7689 20.4059 20.6595 20.376 20.7194C20.165 21.1374 20.1364 21.2402 19.9229 21.4863C19.5973 21.8613 19.2666 22.278 19.0908 22.4512C18.9372 22.6022 18.6598 22.8366 18.488 23.2975C18.3135 23.7572 18.3955 24.39 18.6729 24.8613C19.0426 25.4889 20.2627 27.4746 22.1572 29.1426C23.3512 30.1947 24.4619 30.8913 25.3499 31.36C26.2393 31.8275 26.9619 32.1009 27.1234 32.1816C27.5088 32.3717 27.9281 32.5202 28.4163 32.4616C28.9059 32.4017 29.3265 32.1061 29.5947 31.8027L29.596 31.8014C29.9541 31.3965 31.014 30.1855 31.5218 29.4395C31.5439 29.4473 31.5374 29.4408 31.7054 29.502V29.5046H31.708C31.7848 29.5319 32.7523 29.9642 33.6143 30.3757C34.4762 30.7858 35.3512 31.2129 35.6351 31.3535C36.0465 31.5566 36.2406 31.6895 36.29 31.6895C36.2939 31.778 36.2965 31.873 36.2835 32.0176C36.2497 32.4186 36.1416 32.9746 35.9268 33.571C35.8213 33.8613 35.2731 34.4629 34.5804 34.9004C33.889 35.3379 33.0465 35.6478 32.7353 35.6934C31.7978 35.8314 30.6846 35.8822 29.4619 35.498C28.6143 35.2324 27.557 34.8874 26.1885 34.3053C23.4124 33.1204 21.0531 31.1061 19.3682 29.3327C18.5257 28.4447 17.8499 27.6191 17.3695 26.9941C16.8903 26.3704 16.682 26.0462 16.5062 25.8171L16.5049 25.8145C16.195 25.4043 14.2979 22.7663 14.2979 20.3887C14.2979 17.873 15.4658 16.8861 16.0986 16.2051C16.4307 15.847 16.7939 15.7949 16.9398 15.7949H16.9411Z" fill="white"/>
</g>
<defs>
<clipPath id="clip0">
<rect width="50" height="50" fill="white" transform="translate(0.297852 0.794922)"/>
</clipPath>
</defs>
</svg>
