<?xml version="1.0" standalone="no"?>
<!DOCTYPE svg PUBLIC "-//W3C//DTD SVG 20010904//EN"
 "http://www.w3.org/TR/2001/REC-SVG-20010904/DTD/svg10.dtd">
<svg version="1.0" xmlns="http://www.w3.org/2000/svg"
 width="224.000000pt" height="224.000000pt" viewBox="0 0 224.000000 224.000000"
 preserveAspectRatio="xMidYMid meet">
<metadata>
Created by potrace 1.11, written by Peter Selinger 2001-2013
</metadata>
<g transform="translate(0.000000,224.000000) scale(0.100000,-0.100000)"
fill="#000000" stroke="none">
<path d="M900 2169 c-116 -25 -253 -80 -357 -145 -92 -57 -261 -221 -318 -309
-213 -326 -243 -729 -81 -1071 320 -675 1207 -834 1738 -311 323 318 414 800
229 1216 -144 325 -441 559 -794 626 -112 21 -299 18 -417 -6z m464 -113 c342
-87 617 -361 707 -703 26 -101 36 -288 19 -390 -51 -323 -247 -591 -535 -733
-159 -78 -237 -95 -440 -94 -155 0 -178 3 -257 27 -173 53 -303 130 -424 251
-211 210 -310 486 -283 786 20 224 107 415 266 581 149 156 328 254 528 288
33 6 71 13 85 15 60 11 239 -4 334 -28z"/>
<path d="M1040 1979 c-111 -10 -194 -34 -305 -90 -182 -90 -306 -214 -394
-394 -75 -154 -86 -202 -86 -390 0 -140 3 -169 24 -235 49 -158 115 -271 221
-378 268 -272 678 -339 1020 -167 368 184 560 625 445 1018 -120 415 -500 676
-925 636z m548 -210 c7 -88 -31 -156 -117 -211 -53 -33 -45 -35 34 -8 32 11
64 20 72 20 16 0 17 -43 2 -73 -30 -58 -77 -90 -174 -118 -72 -21 -45 -24 45
-4 36 7 69 10 73 6 16 -16 -6 -62 -45 -95 -43 -37 -102 -56 -173 -56 -42 0
-44 -1 -33 -19 18 -30 -3 -65 -48 -80 -22 -6 -76 -15 -122 -18 l-83 -6 35 64
c53 98 68 154 75 278 7 121 17 141 67 141 33 0 129 54 211 118 96 75 155 113
168 109 5 -2 11 -23 13 -48z m-495 -373 c12 -30 -42 -162 -109 -268 -13 -21
-24 -40 -24 -43 0 -10 183 -5 248 6 70 12 112 42 112 78 0 16 9 21 48 27 59 8
106 27 148 59 l33 25 40 -67 c53 -92 76 -111 161 -133 73 -19 105 -38 115 -70
8 -26 -20 -151 -44 -199 -20 -39 -24 -41 -65 -41 -76 0 -106 10 -106 35 0 33
-41 88 -80 107 -76 38 -169 7 -205 -69 l-20 -42 -60 -1 c-33 0 -162 5 -287 12
l-226 11 -6 38 c-3 21 -18 51 -32 69 -87 103 -229 70 -268 -62 -8 -28 -82 -25
-97 4 -17 31 -6 156 17 203 35 71 56 79 208 80 l134 2 143 126 c127 112 148
126 180 127 23 0 39 -5 42 -14z m-423 -471 c16 -9 36 -29 45 -45 62 -120 -87
-227 -181 -129 -23 24 -29 39 -29 75 0 40 5 50 37 80 42 38 80 44 128 19z
m899 -80 c45 -38 57 -86 34 -133 -55 -114 -213 -76 -213 52 0 30 7 45 34 72
44 44 99 47 145 9z"/>
<path d="M586 867 c-38 -28 -13 -97 34 -97 23 0 50 32 50 58 0 20 -34 52 -55
52 -6 0 -19 -6 -29 -13z"/>
<path d="M1466 794 c-24 -24 -20 -61 9 -80 23 -15 27 -15 50 0 46 30 26 96
-29 96 -8 0 -22 -7 -30 -16z"/>
</g>
</svg>
